<svg width="158" height="90" viewBox="0 0 158 90" fill="none" xmlns="http://www.w3.org/2000/svg">
<path d="M38.0982 20.943C38.1261 20.8551 38.0704 19.3136 38.8558 18.1001C39.6412 16.8865 40.6709 16.7073 41.4316 16.5586C42.3531 16.3794 44.5763 16.0853 44.9288 16.9135C45.2814 17.7417 45.0092 18.188 45.5782 18.4246C46.1472 18.6612 45.1175 20.0539 45.1175 20.0539L38.0982 20.943ZM65.3867 20.9126C65.3867 20.9126 65.6093 19.415 64.827 18.4043C63.652 16.8797 61.8121 16.3862 60.0712 16.3862C59.5115 16.3862 58.8405 16.5045 58.6241 17.2347C58.5004 17.6572 58.4138 18.171 58.1417 18.2285C57.8727 18.2894 63.6241 20.2331 65.3867 20.9126Z" fill="#464C4F"/>
<path d="M44.0971 36.4793C43.1725 37.2636 41.9449 42.6722 40.0247 44.1022C38.1044 45.5321 33.7537 44.7681 33.426 41.8508C33.1384 39.2783 33.661 33.8697 34.9721 28.3427C36.2831 22.8157 37.2912 20.0776 40.3555 19.1818C42.8138 18.4618 47.6314 17.9547 52.3099 18.0054C56.9914 18.0561 61.0886 18.0561 63.6643 19.1311C65.9742 20.0945 67.5481 22.7143 68.6273 27.8289C69.7034 32.9468 70.5352 39.0992 70.4053 41.1342C70.2167 44.1022 66.3793 45.9952 63.5252 43.6931C61.2524 41.861 60.8103 37.196 59.6414 36.53C58.4726 35.8641 44.9381 35.7627 44.0971 36.4793Z" fill="#5E6268"/>
<path d="M60.8597 35.0866C60.6371 35.3909 61.1504 35.8438 61.5153 36.8343C61.8801 37.8247 62.8202 41.1037 63.7324 42.0198C64.8703 43.159 65.7577 42.9461 65.9309 42.5877C66.1041 42.2294 65.1207 41.3032 63.9643 39.2378C62.8078 37.1723 61.3236 34.4545 60.8597 35.0866ZM35.2782 34.2449C34.9349 34.3125 34.0258 39.302 34.6999 41.4114C35.2627 43.1692 37.418 43.2672 38.2281 43.0137C39.8422 42.51 40.3493 40.7995 39.9814 40.6102C39.6165 40.4209 38.3363 41.7595 37.1273 41.1375C35.7791 40.4412 35.7977 38.4805 35.6245 36.4996C35.4699 34.7148 35.6059 34.1807 35.2782 34.2449ZM43.7786 23.1808C43.6518 23.1808 42.5386 23.1741 42.5386 23.1741L42.5448 21.7036C42.5448 21.7036 42.5695 20.5171 41.4069 20.5441C40.3648 20.5678 40.3864 21.5177 40.3864 21.7036C40.3864 21.8895 40.3803 23.1639 40.3803 23.1639C40.3803 23.1639 39.1991 23.1504 38.9795 23.1572C38.76 23.1639 37.9374 23.1774 37.9374 24.3369C37.9374 25.4322 38.7878 25.5099 38.9795 25.5167C39.1712 25.5234 40.3741 25.5234 40.3741 25.5234C40.3741 25.5234 40.3648 26.7505 40.3679 26.95C40.371 27.1494 40.405 28.0892 41.4471 28.0892C42.585 28.0892 42.5262 26.95 42.5262 26.95L42.5324 25.5336C42.5324 25.5336 43.5961 25.5437 43.7817 25.5403C44.0476 25.5336 44.8299 25.4558 44.8423 24.2963C44.8515 23.1504 43.9084 23.1808 43.7786 23.1808Z" fill="#9E9E9E"/>
<path d="M46.9913 32.9874C48.4498 32.9874 49.632 31.6949 49.632 30.1005C49.632 28.5061 48.4498 27.2136 46.9913 27.2136C45.5329 27.2136 44.3506 28.5061 44.3506 30.1005C44.3506 31.6949 45.5329 32.9874 46.9913 32.9874Z" fill="#AFAFAF"/>
<path d="M56.0669 33.0313C57.5253 33.0313 58.7076 31.7388 58.7076 30.1445C58.7076 28.5501 57.5253 27.2576 56.0669 27.2576C54.6084 27.2576 53.4261 28.5501 53.4261 30.1445C53.4261 31.7388 54.6084 33.0313 56.0669 33.0313Z" fill="#AFAFAF"/>
<path d="M46.9882 31.9597C47.9634 31.9597 48.7539 31.0955 48.7539 30.0295C48.7539 28.9635 47.9634 28.0993 46.9882 28.0993C46.0131 28.0993 45.2226 28.9635 45.2226 30.0295C45.2226 31.0955 46.0131 31.9597 46.9882 31.9597Z" fill="#C8C8C8"/>
<path d="M56.0669 32.024C57.042 32.024 57.8325 31.1598 57.8325 30.0938C57.8325 29.0277 57.042 28.1635 56.0669 28.1635C55.0917 28.1635 54.3012 29.0277 54.3012 30.0938C54.3012 31.1598 55.0917 32.024 56.0669 32.024Z" fill="#C8C8C8"/>
<path d="M58.5622 25.9933C59.3478 25.9933 59.9846 25.2971 59.9846 24.4383C59.9846 23.5795 59.3478 22.8833 58.5622 22.8833C57.7767 22.8833 57.1398 23.5795 57.1398 24.4383C57.1398 25.2971 57.7767 25.9933 58.5622 25.9933Z" fill="#2086FA"/>
<path d="M61.3823 28.9715C62.1679 28.9715 62.8047 28.2753 62.8047 27.4165C62.8047 26.5577 62.1679 25.8615 61.3823 25.8615C60.5967 25.8615 59.9599 26.5577 59.9599 27.4165C59.9599 28.2753 60.5967 28.9715 61.3823 28.9715Z" fill="#06AC48"/>
<path d="M64.2209 26.2401C65.0065 26.2401 65.6433 25.5439 65.6433 24.6851C65.6433 23.8263 65.0065 23.1301 64.2209 23.1301C63.4354 23.1301 62.7985 23.8263 62.7985 24.6851C62.7985 25.5439 63.4354 26.2401 64.2209 26.2401Z" fill="#F72E26"/>
<path d="M61.407 23.0659C62.1926 23.0659 62.8294 22.3697 62.8294 21.5109C62.8294 20.6521 62.1926 19.9559 61.407 19.9559C60.6215 19.9559 59.9846 20.6521 59.9846 21.5109C59.9846 22.3697 60.6215 23.0659 61.407 23.0659Z" fill="#FDB700"/>
<path d="M8.7571 10.2727L16.6673 35.1378H16.9709L24.897 10.2727H32.5675L21.2855 43H12.3686L1.07067 10.2727H8.7571Z" fill="#1452F2"/>
<path d="M43.3636 10.0625C43.3239 9.92424 43.268 9.80208 43.196 9.69602C43.1241 9.58807 43.036 9.49716 42.9318 9.4233C42.8295 9.34754 42.7121 9.28977 42.5795 9.25C42.4489 9.21023 42.304 9.19034 42.1449 9.19034C41.8475 9.19034 41.5862 9.2642 41.3608 9.41193C41.1373 9.55966 40.9631 9.77462 40.8381 10.0568C40.7131 10.3371 40.6506 10.6799 40.6506 11.0852C40.6506 11.4905 40.7121 11.8352 40.8352 12.1193C40.9583 12.4034 41.1326 12.6203 41.358 12.7699C41.5833 12.9176 41.8494 12.9915 42.1562 12.9915C42.4347 12.9915 42.6723 12.9422 42.8693 12.8438C43.0682 12.7434 43.2197 12.6023 43.3239 12.4205C43.4299 12.2386 43.483 12.0237 43.483 11.7756L43.733 11.8125H42.233V10.8864H44.6676V11.6193C44.6676 12.1307 44.5597 12.5701 44.3438 12.9375C44.1278 13.303 43.8305 13.5852 43.4517 13.7841C43.0729 13.9811 42.6392 14.0795 42.1506 14.0795C41.6051 14.0795 41.1259 13.9593 40.7131 13.7188C40.3002 13.4763 39.9782 13.1326 39.7472 12.6875C39.518 12.2405 39.4034 11.7102 39.4034 11.0966C39.4034 10.625 39.4716 10.2045 39.608 9.83523C39.7462 9.46402 39.9394 9.14962 40.1875 8.89205C40.4356 8.63447 40.7244 8.43845 41.054 8.30398C41.3835 8.16951 41.7405 8.10227 42.125 8.10227C42.4545 8.10227 42.7614 8.15057 43.0455 8.24716C43.3295 8.34186 43.5814 8.47633 43.8011 8.65057C44.0227 8.82481 44.2036 9.0322 44.3438 9.27273C44.4839 9.51136 44.5739 9.77462 44.6136 10.0625H43.3636ZM46.8132 14.0824C46.5348 14.0824 46.2867 14.0341 46.0689 13.9375C45.8511 13.839 45.6787 13.6941 45.5518 13.5028C45.4268 13.3097 45.3643 13.0691 45.3643 12.7812C45.3643 12.5388 45.4089 12.3352 45.4979 12.1705C45.5869 12.0057 45.7081 11.8731 45.8615 11.7727C46.0149 11.6723 46.1892 11.5966 46.3842 11.5455C46.5812 11.4943 46.7876 11.4583 47.0036 11.4375C47.2573 11.411 47.4619 11.3864 47.6172 11.3636C47.7725 11.339 47.8852 11.303 47.9553 11.2557C48.0253 11.2083 48.0604 11.1383 48.0604 11.0455V11.0284C48.0604 10.8485 48.0036 10.7093 47.8899 10.6108C47.7782 10.5123 47.6191 10.4631 47.4126 10.4631C47.1948 10.4631 47.0215 10.5114 46.8928 10.608C46.764 10.7027 46.6787 10.822 46.6371 10.9659L45.5178 10.875C45.5746 10.6098 45.6863 10.3807 45.853 10.1875C46.0196 9.99242 46.2346 9.8428 46.4979 9.73864C46.763 9.63258 47.0698 9.57955 47.4183 9.57955C47.6607 9.57955 47.8928 9.60795 48.1143 9.66477C48.3378 9.72159 48.5357 9.80966 48.7081 9.92898C48.8823 10.0483 49.0196 10.2017 49.12 10.3892C49.2204 10.5748 49.2706 10.7973 49.2706 11.0568V14H48.1229V13.3949H48.0888C48.0187 13.5312 47.925 13.6515 47.8075 13.7557C47.6901 13.858 47.549 13.9384 47.3842 13.9972C47.2195 14.054 47.0291 14.0824 46.8132 14.0824ZM47.1598 13.2472C47.3378 13.2472 47.495 13.2121 47.6314 13.142C47.7678 13.0701 47.8748 12.9735 47.9524 12.8523C48.0301 12.7311 48.0689 12.5937 48.0689 12.4403V11.9773C48.031 12.0019 47.9789 12.0246 47.9126 12.0455C47.8482 12.0644 47.7753 12.0824 47.6939 12.0994C47.6125 12.1146 47.531 12.1288 47.4496 12.142C47.3681 12.1534 47.2943 12.1638 47.228 12.1733C47.0859 12.1941 46.9619 12.2273 46.8558 12.2727C46.7498 12.3182 46.6674 12.3797 46.6087 12.4574C46.55 12.5331 46.5206 12.6278 46.5206 12.7415C46.5206 12.9062 46.5803 13.0322 46.6996 13.1193C46.8208 13.2045 46.9742 13.2472 47.1598 13.2472ZM50.2095 14V9.63636H51.3629V10.4062H51.4141C51.505 10.1506 51.6565 9.94886 51.8686 9.80114C52.0807 9.65341 52.3345 9.57955 52.63 9.57955C52.9292 9.57955 53.1839 9.65436 53.3942 9.80398C53.6044 9.9517 53.7446 10.1525 53.8146 10.4062H53.8601C53.9491 10.1562 54.1101 9.95644 54.343 9.80682C54.5779 9.6553 54.8554 9.57955 55.1754 9.57955C55.5826 9.57955 55.9131 9.70928 56.1669 9.96875C56.4226 10.2263 56.5504 10.5919 56.5504 11.0653V14H55.343V11.304C55.343 11.0616 55.2786 10.8797 55.1499 10.7585C55.0211 10.6373 54.8601 10.5767 54.6669 10.5767C54.4472 10.5767 54.2758 10.6468 54.1527 10.7869C54.0296 10.9252 53.968 11.108 53.968 11.3352V14H52.7947V11.2784C52.7947 11.0644 52.7332 10.8939 52.6101 10.767C52.4889 10.6402 52.3288 10.5767 52.13 10.5767C51.9955 10.5767 51.8743 10.6108 51.7663 10.679C51.6603 10.7453 51.576 10.839 51.5135 10.9602C51.451 11.0795 51.4197 11.2197 51.4197 11.3807V14H50.2095ZM59.495 14.0852C59.0462 14.0852 58.6598 13.9943 58.3359 13.8125C58.014 13.6288 57.7659 13.3693 57.5916 13.0341C57.4174 12.697 57.3303 12.2983 57.3303 11.8381C57.3303 11.3892 57.4174 10.9953 57.5916 10.6562C57.7659 10.3172 58.0111 10.053 58.3274 9.86364C58.6456 9.67424 59.0187 9.57955 59.4467 9.57955C59.7346 9.57955 60.0026 9.62595 60.2507 9.71875C60.5007 9.80966 60.7185 9.94697 60.9041 10.1307C61.0916 10.3144 61.2375 10.5455 61.3416 10.8239C61.4458 11.1004 61.4979 11.4242 61.4979 11.7955V12.1278H57.8132V11.3778H60.3587C60.3587 11.2036 60.3208 11.0492 60.245 10.9148C60.1693 10.7803 60.0642 10.6752 59.9297 10.5994C59.7971 10.5218 59.6428 10.483 59.4666 10.483C59.2829 10.483 59.12 10.5256 58.978 10.6108C58.8378 10.6941 58.728 10.8068 58.6484 10.9489C58.5689 11.089 58.5282 11.2453 58.5263 11.4176V12.1307C58.5263 12.3466 58.5661 12.5331 58.6456 12.6903C58.727 12.8475 58.8416 12.9688 58.9893 13.054C59.1371 13.1392 59.3123 13.1818 59.5149 13.1818C59.6494 13.1818 59.7725 13.1629 59.8842 13.125C59.996 13.0871 60.0916 13.0303 60.1712 12.9545C60.2507 12.8788 60.3113 12.786 60.353 12.6761L61.4723 12.75C61.4155 13.0189 61.299 13.2538 61.1229 13.4545C60.9486 13.6534 60.7232 13.8087 60.4467 13.9205C60.1721 14.0303 59.8549 14.0852 59.495 14.0852ZM65.9183 10.8807L64.8104 10.9489C64.7914 10.8542 64.7507 10.7689 64.6882 10.6932C64.6257 10.6155 64.5433 10.554 64.4411 10.5085C64.3407 10.4612 64.2204 10.4375 64.0803 10.4375C63.8928 10.4375 63.7346 10.4773 63.6058 10.5568C63.477 10.6345 63.4126 10.7386 63.4126 10.8693C63.4126 10.9735 63.4543 11.0616 63.5376 11.1335C63.621 11.2055 63.764 11.2633 63.9666 11.3068L64.7564 11.4659C65.1806 11.553 65.4969 11.6932 65.7053 11.8864C65.9136 12.0795 66.0178 12.3333 66.0178 12.6477C66.0178 12.9337 65.9335 13.1847 65.7649 13.4006C65.5982 13.6165 65.3691 13.785 65.0774 13.9062C64.7876 14.0256 64.4534 14.0852 64.0746 14.0852C63.4969 14.0852 63.0367 13.965 62.6939 13.7244C62.353 13.482 62.1532 13.1525 62.0945 12.7358L63.2848 12.6733C63.3208 12.8494 63.4079 12.9839 63.5462 13.0767C63.6844 13.1676 63.8615 13.2131 64.0774 13.2131C64.2895 13.2131 64.46 13.1723 64.5888 13.0909C64.7195 13.0076 64.7857 12.9006 64.7876 12.7699C64.7857 12.66 64.7393 12.5701 64.6484 12.5C64.5575 12.428 64.4174 12.3731 64.228 12.3352L63.4723 12.1847C63.0462 12.0994 62.7289 11.9517 62.5206 11.7415C62.3142 11.5312 62.2109 11.2633 62.2109 10.9375C62.2109 10.6572 62.2867 10.4157 62.4382 10.2131C62.5916 10.0104 62.8066 9.85417 63.0831 9.74432C63.3615 9.63447 63.6873 9.57955 64.0604 9.57955C64.6115 9.57955 65.0452 9.69602 65.3615 9.92898C65.6797 10.1619 65.8653 10.4792 65.9183 10.8807Z" fill="#1452F2"/>
</svg>
