<svg width="119" height="52" viewBox="0 0 119 52" fill="none" xmlns="http://www.w3.org/2000/svg">
<path d="M26.6031 32.9004C26.6242 32.8496 26.582 31.959 27.1773 31.2578C27.7727 30.5566 28.5531 30.4531 29.1297 30.3672C29.8281 30.2637 31.5133 30.0937 31.7805 30.5723C32.0477 31.0508 31.8414 31.3086 32.2727 31.4453C32.7039 31.582 31.9234 32.3867 31.9234 32.3867L26.6031 32.9004ZM47.2867 32.8828C47.2867 32.8828 47.4555 32.0176 46.8625 31.4336C45.9719 30.5527 44.5773 30.2676 43.2578 30.2676C42.8336 30.2676 42.325 30.3359 42.1609 30.7578C42.0672 31.002 42.0016 31.2988 41.7953 31.332C41.5914 31.3672 45.9508 32.4902 47.2867 32.8828Z" fill="#464C4F"/>
<path d="M31.15 41.877C30.4492 42.3301 29.5187 45.4551 28.0633 46.2812C26.6078 47.1074 23.3102 46.666 23.0617 44.9805C22.8437 43.4941 23.2398 40.3691 24.2336 37.1758C25.2273 33.9824 25.9914 32.4004 28.3141 31.8828C30.1773 31.4668 33.8289 31.1738 37.375 31.2031C40.9234 31.2324 44.0289 31.2324 45.9812 31.8535C47.732 32.4102 48.925 33.9238 49.743 36.8789C50.5586 39.8359 51.1891 43.3906 51.0906 44.5664C50.9477 46.2812 48.0391 47.375 45.8758 46.0449C44.1531 44.9863 43.818 42.291 42.932 41.9062C42.0461 41.5215 31.7875 41.4629 31.15 41.877Z" fill="#5E6268"/>
<path d="M43.8555 41.0723C43.6867 41.248 44.0758 41.5098 44.3523 42.082C44.6289 42.6543 45.3414 44.5488 46.0328 45.0781C46.8953 45.7363 47.568 45.6133 47.6992 45.4063C47.8305 45.1992 47.0852 44.6641 46.2086 43.4707C45.332 42.2773 44.207 40.707 43.8555 41.0723ZM24.4656 40.5859C24.2055 40.625 23.5164 43.5078 24.0273 44.7266C24.4539 45.7422 26.0875 45.7988 26.7016 45.6523C27.925 45.3613 28.3094 44.373 28.0305 44.2637C27.7539 44.1543 26.7836 44.9277 25.8672 44.5684C24.8453 44.166 24.8594 43.0332 24.7281 41.8887C24.6109 40.8574 24.7141 40.5488 24.4656 40.5859ZM30.9086 34.1934C30.8125 34.1934 29.9687 34.1895 29.9687 34.1895L29.9734 33.3398C29.9734 33.3398 29.9922 32.6543 29.1109 32.6699C28.3211 32.6836 28.3375 33.2324 28.3375 33.3398C28.3375 33.4473 28.3328 34.1836 28.3328 34.1836C28.3328 34.1836 27.4375 34.1758 27.2711 34.1797C27.1047 34.1836 26.4812 34.1914 26.4812 34.8613C26.4812 35.4941 27.1258 35.5391 27.2711 35.543C27.4164 35.5469 28.3281 35.5469 28.3281 35.5469C28.3281 35.5469 28.3211 36.2559 28.3234 36.3711C28.3258 36.4863 28.3516 37.0293 29.1414 37.0293C30.0039 37.0293 29.9594 36.3711 29.9594 36.3711L29.9641 35.5527C29.9641 35.5527 30.7703 35.5586 30.9109 35.5566C31.1125 35.5527 31.7055 35.5078 31.7148 34.8379C31.7219 34.1758 31.007 34.1934 30.9086 34.1934Z" fill="#9E9E9E"/>
<path d="M33.3437 39.8594C34.4492 39.8594 35.3453 39.1126 35.3453 38.1914C35.3453 37.2702 34.4492 36.5234 33.3437 36.5234C32.2383 36.5234 31.3422 37.2702 31.3422 38.1914C31.3422 39.1126 32.2383 39.8594 33.3437 39.8594Z" fill="#AFAFAF"/>
<path d="M40.2227 39.8848C41.3281 39.8848 42.2242 39.138 42.2242 38.2168C42.2242 37.2956 41.3281 36.5488 40.2227 36.5488C39.1172 36.5488 38.2211 37.2956 38.2211 38.2168C38.2211 39.138 39.1172 39.8848 40.2227 39.8848Z" fill="#AFAFAF"/>
<path d="M33.3414 39.2656C34.0805 39.2656 34.6797 38.7663 34.6797 38.1504C34.6797 37.5345 34.0805 37.0352 33.3414 37.0352C32.6023 37.0352 32.0031 37.5345 32.0031 38.1504C32.0031 38.7663 32.6023 39.2656 33.3414 39.2656Z" fill="#C8C8C8"/>
<path d="M40.2227 39.3027C40.9618 39.3027 41.5609 38.8034 41.5609 38.1875C41.5609 37.5716 40.9618 37.0723 40.2227 37.0723C39.4835 37.0723 38.8844 37.5716 38.8844 38.1875C38.8844 38.8034 39.4835 39.3027 40.2227 39.3027Z" fill="#C8C8C8"/>
<path d="M42.1141 35.8184C42.7095 35.8184 43.1922 35.4161 43.1922 34.9199C43.1922 34.4237 42.7095 34.0215 42.1141 34.0215C41.5186 34.0215 41.0359 34.4237 41.0359 34.9199C41.0359 35.4161 41.5186 35.8184 42.1141 35.8184Z" fill="#2086FA"/>
<path d="M44.2516 37.5391C44.847 37.5391 45.3297 37.1368 45.3297 36.6406C45.3297 36.1444 44.847 35.7422 44.2516 35.7422C43.6561 35.7422 43.1734 36.1444 43.1734 36.6406C43.1734 37.1368 43.6561 37.5391 44.2516 37.5391Z" fill="#06AC48"/>
<path d="M46.4031 35.9609C46.9986 35.9609 47.4813 35.5587 47.4813 35.0625C47.4813 34.5663 46.9986 34.1641 46.4031 34.1641C45.8077 34.1641 45.325 34.5663 45.325 35.0625C45.325 35.5587 45.8077 35.9609 46.4031 35.9609Z" fill="#F72E26"/>
<path d="M44.2703 34.127C44.8657 34.127 45.3484 33.7247 45.3484 33.2285C45.3484 32.7323 44.8657 32.3301 44.2703 32.3301C43.6749 32.3301 43.1922 32.7323 43.1922 33.2285C43.1922 33.7247 43.6749 34.127 44.2703 34.127Z" fill="#FDB700"/>
<path d="M8.7571 10.2727L16.6673 35.1378H16.9709L24.897 10.2727H32.5675L21.2855 43H12.3686L1.07067 10.2727H8.7571Z" fill="#1452F2"/>
<path d="M33.3636 23.0625C33.3239 22.9242 33.268 22.8021 33.196 22.696C33.1241 22.5881 33.036 22.4972 32.9318 22.4233C32.8295 22.3475 32.7121 22.2898 32.5795 22.25C32.4489 22.2102 32.304 22.1903 32.1449 22.1903C31.8475 22.1903 31.5862 22.2642 31.3608 22.4119C31.1373 22.5597 30.9631 22.7746 30.8381 23.0568C30.7131 23.3371 30.6506 23.6799 30.6506 24.0852C30.6506 24.4905 30.7121 24.8352 30.8352 25.1193C30.9583 25.4034 31.1326 25.6203 31.358 25.7699C31.5833 25.9176 31.8494 25.9915 32.1562 25.9915C32.4347 25.9915 32.6723 25.9422 32.8693 25.8438C33.0682 25.7434 33.2197 25.6023 33.3239 25.4205C33.4299 25.2386 33.483 25.0237 33.483 24.7756L33.733 24.8125H32.233V23.8864H34.6676V24.6193C34.6676 25.1307 34.5597 25.5701 34.3438 25.9375C34.1278 26.303 33.8305 26.5852 33.4517 26.7841C33.0729 26.9811 32.6392 27.0795 32.1506 27.0795C31.6051 27.0795 31.1259 26.9593 30.7131 26.7188C30.3002 26.4763 29.9782 26.1326 29.7472 25.6875C29.518 25.2405 29.4034 24.7102 29.4034 24.0966C29.4034 23.625 29.4716 23.2045 29.608 22.8352C29.7462 22.464 29.9394 22.1496 30.1875 21.892C30.4356 21.6345 30.7244 21.4384 31.054 21.304C31.3835 21.1695 31.7405 21.1023 32.125 21.1023C32.4545 21.1023 32.7614 21.1506 33.0455 21.2472C33.3295 21.3419 33.5814 21.4763 33.8011 21.6506C34.0227 21.8248 34.2036 22.0322 34.3438 22.2727C34.4839 22.5114 34.5739 22.7746 34.6136 23.0625H33.3636ZM36.8132 27.0824C36.5348 27.0824 36.2867 27.0341 36.0689 26.9375C35.8511 26.839 35.6787 26.6941 35.5518 26.5028C35.4268 26.3097 35.3643 26.0691 35.3643 25.7812C35.3643 25.5388 35.4089 25.3352 35.4979 25.1705C35.5869 25.0057 35.7081 24.8731 35.8615 24.7727C36.0149 24.6723 36.1892 24.5966 36.3842 24.5455C36.5812 24.4943 36.7876 24.4583 37.0036 24.4375C37.2573 24.411 37.4619 24.3864 37.6172 24.3636C37.7725 24.339 37.8852 24.303 37.9553 24.2557C38.0253 24.2083 38.0604 24.1383 38.0604 24.0455V24.0284C38.0604 23.8485 38.0036 23.7093 37.8899 23.6108C37.7782 23.5123 37.6191 23.4631 37.4126 23.4631C37.1948 23.4631 37.0215 23.5114 36.8928 23.608C36.764 23.7027 36.6787 23.822 36.6371 23.9659L35.5178 23.875C35.5746 23.6098 35.6863 23.3807 35.853 23.1875C36.0196 22.9924 36.2346 22.8428 36.4979 22.7386C36.763 22.6326 37.0698 22.5795 37.4183 22.5795C37.6607 22.5795 37.8928 22.608 38.1143 22.6648C38.3378 22.7216 38.5357 22.8097 38.7081 22.929C38.8823 23.0483 39.0196 23.2017 39.12 23.3892C39.2204 23.5748 39.2706 23.7973 39.2706 24.0568V27H38.1229V26.3949H38.0888C38.0187 26.5312 37.925 26.6515 37.8075 26.7557C37.6901 26.858 37.549 26.9384 37.3842 26.9972C37.2195 27.054 37.0291 27.0824 36.8132 27.0824ZM37.1598 26.2472C37.3378 26.2472 37.495 26.2121 37.6314 26.142C37.7678 26.0701 37.8748 25.9735 37.9524 25.8523C38.0301 25.7311 38.0689 25.5937 38.0689 25.4403V24.9773C38.031 25.0019 37.9789 25.0246 37.9126 25.0455C37.8482 25.0644 37.7753 25.0824 37.6939 25.0994C37.6125 25.1146 37.531 25.1288 37.4496 25.142C37.3681 25.1534 37.2943 25.1638 37.228 25.1733C37.0859 25.1941 36.9619 25.2273 36.8558 25.2727C36.7498 25.3182 36.6674 25.3797 36.6087 25.4574C36.55 25.5331 36.5206 25.6278 36.5206 25.7415C36.5206 25.9062 36.5803 26.0322 36.6996 26.1193C36.8208 26.2045 36.9742 26.2472 37.1598 26.2472ZM40.2095 27V22.6364H41.3629V23.4062H41.4141C41.505 23.1506 41.6565 22.9489 41.8686 22.8011C42.0807 22.6534 42.3345 22.5795 42.63 22.5795C42.9292 22.5795 43.1839 22.6544 43.3942 22.804C43.6044 22.9517 43.7446 23.1525 43.8146 23.4062H43.8601C43.9491 23.1562 44.1101 22.9564 44.343 22.8068C44.5779 22.6553 44.8554 22.5795 45.1754 22.5795C45.5826 22.5795 45.9131 22.7093 46.1669 22.9688C46.4226 23.2263 46.5504 23.5919 46.5504 24.0653V27H45.343V24.304C45.343 24.0616 45.2786 23.8797 45.1499 23.7585C45.0211 23.6373 44.8601 23.5767 44.6669 23.5767C44.4472 23.5767 44.2758 23.6468 44.1527 23.7869C44.0296 23.9252 43.968 24.108 43.968 24.3352V27H42.7947V24.2784C42.7947 24.0644 42.7332 23.8939 42.6101 23.767C42.4889 23.6402 42.3288 23.5767 42.13 23.5767C41.9955 23.5767 41.8743 23.6108 41.7663 23.679C41.6603 23.7453 41.576 23.839 41.5135 23.9602C41.451 24.0795 41.4197 24.2197 41.4197 24.3807V27H40.2095ZM49.495 27.0852C49.0462 27.0852 48.6598 26.9943 48.3359 26.8125C48.014 26.6288 47.7659 26.3693 47.5916 26.0341C47.4174 25.697 47.3303 25.2983 47.3303 24.8381C47.3303 24.3892 47.4174 23.9953 47.5916 23.6562C47.7659 23.3172 48.0111 23.053 48.3274 22.8636C48.6456 22.6742 49.0187 22.5795 49.4467 22.5795C49.7346 22.5795 50.0026 22.6259 50.2507 22.7188C50.5007 22.8097 50.7185 22.947 50.9041 23.1307C51.0916 23.3144 51.2375 23.5455 51.3416 23.8239C51.4458 24.1004 51.4979 24.4242 51.4979 24.7955V25.1278H47.8132V24.3778H50.3587C50.3587 24.2036 50.3208 24.0492 50.245 23.9148C50.1693 23.7803 50.0642 23.6752 49.9297 23.5994C49.7971 23.5218 49.6428 23.483 49.4666 23.483C49.2829 23.483 49.12 23.5256 48.978 23.6108C48.8378 23.6941 48.728 23.8068 48.6484 23.9489C48.5689 24.089 48.5282 24.2453 48.5263 24.4176V25.1307C48.5263 25.3466 48.5661 25.5331 48.6456 25.6903C48.727 25.8475 48.8416 25.9688 48.9893 26.054C49.1371 26.1392 49.3123 26.1818 49.5149 26.1818C49.6494 26.1818 49.7725 26.1629 49.8842 26.125C49.996 26.0871 50.0916 26.0303 50.1712 25.9545C50.2507 25.8788 50.3113 25.786 50.353 25.6761L51.4723 25.75C51.4155 26.0189 51.299 26.2538 51.1229 26.4545C50.9486 26.6534 50.7232 26.8087 50.4467 26.9205C50.1721 27.0303 49.8549 27.0852 49.495 27.0852ZM55.9183 23.8807L54.8104 23.9489C54.7914 23.8542 54.7507 23.7689 54.6882 23.6932C54.6257 23.6155 54.5433 23.554 54.4411 23.5085C54.3407 23.4612 54.2204 23.4375 54.0803 23.4375C53.8928 23.4375 53.7346 23.4773 53.6058 23.5568C53.477 23.6345 53.4126 23.7386 53.4126 23.8693C53.4126 23.9735 53.4543 24.0616 53.5376 24.1335C53.621 24.2055 53.764 24.2633 53.9666 24.3068L54.7564 24.4659C55.1806 24.553 55.4969 24.6932 55.7053 24.8864C55.9136 25.0795 56.0178 25.3333 56.0178 25.6477C56.0178 25.9337 55.9335 26.1847 55.7649 26.4006C55.5982 26.6165 55.3691 26.785 55.0774 26.9062C54.7876 27.0256 54.4534 27.0852 54.0746 27.0852C53.4969 27.0852 53.0367 26.965 52.6939 26.7244C52.353 26.482 52.1532 26.1525 52.0945 25.7358L53.2848 25.6733C53.3208 25.8494 53.4079 25.9839 53.5462 26.0767C53.6844 26.1676 53.8615 26.2131 54.0774 26.2131C54.2895 26.2131 54.46 26.1723 54.5888 26.0909C54.7195 26.0076 54.7857 25.9006 54.7876 25.7699C54.7857 25.66 54.7393 25.5701 54.6484 25.5C54.5575 25.428 54.4174 25.3731 54.228 25.3352L53.4723 25.1847C53.0462 25.0994 52.7289 24.9517 52.5206 24.7415C52.3142 24.5312 52.2109 24.2633 52.2109 23.9375C52.2109 23.6572 52.2867 23.4157 52.4382 23.2131C52.5916 23.0104 52.8066 22.8542 53.0831 22.7443C53.3615 22.6345 53.6873 22.5795 54.0604 22.5795C54.6115 22.5795 55.0452 22.696 55.3615 22.929C55.6797 23.1619 55.8653 23.4792 55.9183 23.8807Z" fill="#1452F2"/>
</svg>
