<svg width="69" height="46" viewBox="0 0 69 46" fill="none" xmlns="http://www.w3.org/2000/svg">
<path d="M8.7571 10.2727L16.6673 35.1378H16.9709L24.897 10.2727H32.5675L21.2855 43H12.3686L1.07067 10.2727H8.7571Z" fill="#1452F2"/>
<path d="M34.3636 23.0625C34.3239 22.9242 34.268 22.8021 34.196 22.696C34.1241 22.5881 34.036 22.4972 33.9318 22.4233C33.8295 22.3475 33.7121 22.2898 33.5795 22.25C33.4489 22.2102 33.304 22.1903 33.1449 22.1903C32.8475 22.1903 32.5862 22.2642 32.3608 22.4119C32.1373 22.5597 31.9631 22.7746 31.8381 23.0568C31.7131 23.3371 31.6506 23.6799 31.6506 24.0852C31.6506 24.4905 31.7121 24.8352 31.8352 25.1193C31.9583 25.4034 32.1326 25.6203 32.358 25.7699C32.5833 25.9176 32.8494 25.9915 33.1562 25.9915C33.4347 25.9915 33.6723 25.9422 33.8693 25.8438C34.0682 25.7434 34.2197 25.6023 34.3239 25.4205C34.4299 25.2386 34.483 25.0237 34.483 24.7756L34.733 24.8125H33.233V23.8864H35.6676V24.6193C35.6676 25.1307 35.5597 25.5701 35.3438 25.9375C35.1278 26.303 34.8305 26.5852 34.4517 26.7841C34.0729 26.9811 33.6392 27.0795 33.1506 27.0795C32.6051 27.0795 32.1259 26.9593 31.7131 26.7188C31.3002 26.4763 30.9782 26.1326 30.7472 25.6875C30.518 25.2405 30.4034 24.7102 30.4034 24.0966C30.4034 23.625 30.4716 23.2045 30.608 22.8352C30.7462 22.464 30.9394 22.1496 31.1875 21.892C31.4356 21.6345 31.7244 21.4384 32.054 21.304C32.3835 21.1695 32.7405 21.1023 33.125 21.1023C33.4545 21.1023 33.7614 21.1506 34.0455 21.2472C34.3295 21.3419 34.5814 21.4763 34.8011 21.6506C35.0227 21.8248 35.2036 22.0322 35.3438 22.2727C35.4839 22.5114 35.5739 22.7746 35.6136 23.0625H34.3636ZM37.8132 27.0824C37.5348 27.0824 37.2867 27.0341 37.0689 26.9375C36.8511 26.839 36.6787 26.6941 36.5518 26.5028C36.4268 26.3097 36.3643 26.0691 36.3643 25.7812C36.3643 25.5388 36.4089 25.3352 36.4979 25.1705C36.5869 25.0057 36.7081 24.8731 36.8615 24.7727C37.0149 24.6723 37.1892 24.5966 37.3842 24.5455C37.5812 24.4943 37.7876 24.4583 38.0036 24.4375C38.2573 24.411 38.4619 24.3864 38.6172 24.3636C38.7725 24.339 38.8852 24.303 38.9553 24.2557C39.0253 24.2083 39.0604 24.1383 39.0604 24.0455V24.0284C39.0604 23.8485 39.0036 23.7093 38.8899 23.6108C38.7782 23.5123 38.6191 23.4631 38.4126 23.4631C38.1948 23.4631 38.0215 23.5114 37.8928 23.608C37.764 23.7027 37.6787 23.822 37.6371 23.9659L36.5178 23.875C36.5746 23.6098 36.6863 23.3807 36.853 23.1875C37.0196 22.9924 37.2346 22.8428 37.4979 22.7386C37.763 22.6326 38.0698 22.5795 38.4183 22.5795C38.6607 22.5795 38.8928 22.608 39.1143 22.6648C39.3378 22.7216 39.5357 22.8097 39.7081 22.929C39.8823 23.0483 40.0196 23.2017 40.12 23.3892C40.2204 23.5748 40.2706 23.7973 40.2706 24.0568V27H39.1229V26.3949H39.0888C39.0187 26.5312 38.925 26.6515 38.8075 26.7557C38.6901 26.858 38.549 26.9384 38.3842 26.9972C38.2195 27.054 38.0291 27.0824 37.8132 27.0824ZM38.1598 26.2472C38.3378 26.2472 38.495 26.2121 38.6314 26.142C38.7678 26.0701 38.8748 25.9735 38.9524 25.8523C39.0301 25.7311 39.0689 25.5937 39.0689 25.4403V24.9773C39.031 25.0019 38.9789 25.0246 38.9126 25.0455C38.8482 25.0644 38.7753 25.0824 38.6939 25.0994C38.6125 25.1146 38.531 25.1288 38.4496 25.142C38.3681 25.1534 38.2943 25.1638 38.228 25.1733C38.0859 25.1941 37.9619 25.2273 37.8558 25.2727C37.7498 25.3182 37.6674 25.3797 37.6087 25.4574C37.55 25.5331 37.5206 25.6278 37.5206 25.7415C37.5206 25.9062 37.5803 26.0322 37.6996 26.1193C37.8208 26.2045 37.9742 26.2472 38.1598 26.2472ZM41.2095 27V22.6364H42.3629V23.4062H42.4141C42.505 23.1506 42.6565 22.9489 42.8686 22.8011C43.0807 22.6534 43.3345 22.5795 43.63 22.5795C43.9292 22.5795 44.1839 22.6544 44.3942 22.804C44.6044 22.9517 44.7446 23.1525 44.8146 23.4062H44.8601C44.9491 23.1562 45.1101 22.9564 45.343 22.8068C45.5779 22.6553 45.8554 22.5795 46.1754 22.5795C46.5826 22.5795 46.9131 22.7093 47.1669 22.9688C47.4226 23.2263 47.5504 23.5919 47.5504 24.0653V27H46.343V24.304C46.343 24.0616 46.2786 23.8797 46.1499 23.7585C46.0211 23.6373 45.8601 23.5767 45.6669 23.5767C45.4472 23.5767 45.2758 23.6468 45.1527 23.7869C45.0296 23.9252 44.968 24.108 44.968 24.3352V27H43.7947V24.2784C43.7947 24.0644 43.7332 23.8939 43.6101 23.767C43.4889 23.6402 43.3288 23.5767 43.13 23.5767C42.9955 23.5767 42.8743 23.6108 42.7663 23.679C42.6603 23.7453 42.576 23.839 42.5135 23.9602C42.451 24.0795 42.4197 24.2197 42.4197 24.3807V27H41.2095ZM50.495 27.0852C50.0462 27.0852 49.6598 26.9943 49.3359 26.8125C49.014 26.6288 48.7659 26.3693 48.5916 26.0341C48.4174 25.697 48.3303 25.2983 48.3303 24.8381C48.3303 24.3892 48.4174 23.9953 48.5916 23.6562C48.7659 23.3172 49.0111 23.053 49.3274 22.8636C49.6456 22.6742 50.0187 22.5795 50.4467 22.5795C50.7346 22.5795 51.0026 22.6259 51.2507 22.7188C51.5007 22.8097 51.7185 22.947 51.9041 23.1307C52.0916 23.3144 52.2375 23.5455 52.3416 23.8239C52.4458 24.1004 52.4979 24.4242 52.4979 24.7955V25.1278H48.8132V24.3778H51.3587C51.3587 24.2036 51.3208 24.0492 51.245 23.9148C51.1693 23.7803 51.0642 23.6752 50.9297 23.5994C50.7971 23.5218 50.6428 23.483 50.4666 23.483C50.2829 23.483 50.12 23.5256 49.978 23.6108C49.8378 23.6941 49.728 23.8068 49.6484 23.9489C49.5689 24.089 49.5282 24.2453 49.5263 24.4176V25.1307C49.5263 25.3466 49.5661 25.5331 49.6456 25.6903C49.727 25.8475 49.8416 25.9688 49.9893 26.054C50.1371 26.1392 50.3123 26.1818 50.5149 26.1818C50.6494 26.1818 50.7725 26.1629 50.8842 26.125C50.996 26.0871 51.0916 26.0303 51.1712 25.9545C51.2507 25.8788 51.3113 25.786 51.353 25.6761L52.4723 25.75C52.4155 26.0189 52.299 26.2538 52.1229 26.4545C51.9486 26.6534 51.7232 26.8087 51.4467 26.9205C51.1721 27.0303 50.8549 27.0852 50.495 27.0852ZM56.9183 23.8807L55.8104 23.9489C55.7914 23.8542 55.7507 23.7689 55.6882 23.6932C55.6257 23.6155 55.5433 23.554 55.4411 23.5085C55.3407 23.4612 55.2204 23.4375 55.0803 23.4375C54.8928 23.4375 54.7346 23.4773 54.6058 23.5568C54.477 23.6345 54.4126 23.7386 54.4126 23.8693C54.4126 23.9735 54.4543 24.0616 54.5376 24.1335C54.621 24.2055 54.764 24.2633 54.9666 24.3068L55.7564 24.4659C56.1806 24.553 56.4969 24.6932 56.7053 24.8864C56.9136 25.0795 57.0178 25.3333 57.0178 25.6477C57.0178 25.9337 56.9335 26.1847 56.7649 26.4006C56.5982 26.6165 56.3691 26.785 56.0774 26.9062C55.7876 27.0256 55.4534 27.0852 55.0746 27.0852C54.4969 27.0852 54.0367 26.965 53.6939 26.7244C53.353 26.482 53.1532 26.1525 53.0945 25.7358L54.2848 25.6733C54.3208 25.8494 54.4079 25.9839 54.5462 26.0767C54.6844 26.1676 54.8615 26.2131 55.0774 26.2131C55.2895 26.2131 55.46 26.1723 55.5888 26.0909C55.7195 26.0076 55.7857 25.9006 55.7876 25.7699C55.7857 25.66 55.7393 25.5701 55.6484 25.5C55.5575 25.428 55.4174 25.3731 55.228 25.3352L54.4723 25.1847C54.0462 25.0994 53.7289 24.9517 53.5206 24.7415C53.3142 24.5312 53.2109 24.2633 53.2109 23.9375C53.2109 23.6572 53.2867 23.4157 53.4382 23.2131C53.5916 23.0104 53.8066 22.8542 54.0831 22.7443C54.3615 22.6345 54.6873 22.5795 55.0604 22.5795C55.6115 22.5795 56.0452 22.696 56.3615 22.929C56.6797 23.1619 56.8653 23.4792 56.9183 23.8807Z" fill="white"/>
</svg>
